<?xml version="1.0" encoding="utf-8"?>
<!-- Generator: Adobe Illustrator 19.2.1, SVG Export Plug-In . SVG Version: 6.00 Build 0)  -->
<svg version="1.1" id="layer" xmlns="http://www.w3.org/2000/svg" xmlns:xlink="http://www.w3.org/1999/xlink" x="0px" y="0px"
	 viewBox="0 0 652 652" style="enable-background:new 0 0 652 652;" xml:space="preserve">
<style type="text/css">
	.st0{clip-path:url(#SVGID_2_);fill:url(#SVGID_3_);}
	.st1{clip-path:url(#SVGID_5_);fill:url(#SVGID_6_);}
	.st2{clip-path:url(#SVGID_8_);fill:url(#SVGID_9_);}
	.st3{clip-path:url(#SVGID_11_);fill:url(#SVGID_12_);}
	.st4{clip-path:url(#SVGID_14_);fill:url(#SVGID_15_);}
	.st5{clip-path:url(#SVGID_17_);fill:url(#SVGID_18_);}
	.st6{clip-path:url(#SVGID_20_);fill:url(#SVGID_21_);}
	.st7{clip-path:url(#SVGID_23_);fill:url(#SVGID_24_);}
	.st8{clip-path:url(#SVGID_26_);fill:url(#SVGID_27_);}
	.st9{clip-path:url(#SVGID_29_);fill:url(#SVGID_30_);}
</style>
<g>
	<defs>
		<path id="SVGID_1_" d="M51.9,304.4c3.5-3.7,8-5.5,13.4-5.5c5.4,0,9.9,1.8,13.4,5.5c3.5,3.7,5.2,8.6,5.2,14.7
			c0,6.2-1.7,11.1-5.2,14.7c-3.5,3.7-8,5.5-13.4,5.5c-5.4,0-9.9-1.8-13.4-5.5c-3.5-3.7-5.2-8.6-5.2-14.7
			C46.7,313,48.4,308,51.9,304.4 M100.6,299.3c-3.2-5.7-7.5-10.1-13.1-13.2c-5.6-3.1-11.8-4.7-18.6-4.7c-10.1,0-17.7,3.2-23,9.5
			v-8.4H25.8v99.5H47v-34.1c5.3,5.9,12.7,8.8,22,8.8c6.8,0,13-1.6,18.6-4.7c5.6-3.1,9.9-7.5,13.1-13.2c3.2-5.7,4.8-12.3,4.8-19.8
			C105.4,311.6,103.8,305,100.6,299.3"/>
	</defs>
	<clipPath id="SVGID_2_">
		<use xlink:href="#SVGID_1_"  style="overflow:visible;"/>
	</clipPath>
	
		<linearGradient id="SVGID_3_" gradientUnits="userSpaceOnUse" x1="21.2497" y1="721.7326" x2="22.7929" y2="721.7326" gradientTransform="matrix(220.2062 -220.2062 -220.2062 -220.2062 154271.2188 163986.1094)">
		<stop  offset="0" style="stop-color:#00EA7B"/>
		<stop  offset="0.2302" style="stop-color:#00E77F"/>
		<stop  offset="0.4474" style="stop-color:#00DC8A"/>
		<stop  offset="0.6595" style="stop-color:#00CB9D"/>
		<stop  offset="0.867" style="stop-color:#00B2B8"/>
		<stop  offset="1" style="stop-color:#009FCD"/>
	</linearGradient>
	<polygon class="st0" points="-24.5,331.8 65.6,241.7 155.7,331.8 65.6,421.9 	"/>
</g>
<g>
	<defs>
		<path id="SVGID_4_" d="M140.9,304.4c3.5-3.7,8-5.5,13.5-5.5c5.4,0,9.9,1.8,13.4,5.5c3.5,3.7,5.2,8.6,5.2,14.7
			c0,6.2-1.7,11.1-5.2,14.7c-3.5,3.7-8,5.5-13.4,5.5c-5.4,0-9.9-1.8-13.5-5.5c-3.5-3.7-5.3-8.6-5.3-14.7
			C135.6,313,137.3,308,140.9,304.4 M189.3,299.7c-3.4-5.7-8.2-10.2-14.3-13.4c-6.1-3.2-13-4.8-20.7-4.8c-7.7,0-14.6,1.6-20.7,4.8
			c-6.1,3.2-10.9,7.7-14.3,13.4c-3.4,5.7-5.2,12.2-5.2,19.4c0,7.3,1.7,13.7,5.2,19.4c3.4,5.7,8.2,10.2,14.3,13.4
			c6.1,3.2,13,4.8,20.7,4.8c7.7,0,14.6-1.6,20.7-4.8c6.1-3.2,10.8-7.7,14.3-13.4c3.4-5.7,5.2-12.2,5.2-19.4
			C194.4,311.9,192.7,305.4,189.3,299.7"/>
	</defs>
	<clipPath id="SVGID_5_">
		<use xlink:href="#SVGID_4_"  style="overflow:visible;"/>
	</clipPath>
	
		<linearGradient id="SVGID_6_" gradientUnits="userSpaceOnUse" x1="21.2496" y1="721.705" x2="22.7928" y2="721.705" gradientTransform="matrix(220.2062 -220.2062 -220.2062 -220.2062 154303.1406 164018.0313)">
		<stop  offset="0" style="stop-color:#00EA7B"/>
		<stop  offset="0.2302" style="stop-color:#00E77F"/>
		<stop  offset="0.4474" style="stop-color:#00DC8A"/>
		<stop  offset="0.6595" style="stop-color:#00CB9D"/>
		<stop  offset="0.867" style="stop-color:#00B2B8"/>
		<stop  offset="1" style="stop-color:#009FCD"/>
	</linearGradient>
	<polygon class="st1" points="76.4,319.1 154.3,241.3 232.1,319.1 154.3,396.9 	"/>
</g>
<g>
	<defs>
		<path id="SVGID_7_" d="M250.6,281.5c-5.6,0-10.6,0.9-14.9,2.7c-4.3,1.8-7.7,4.5-10.3,8v-9.7h-20.3v73.1h21.2v-34.5
			c0-6.8,1.7-11.9,5.2-15.3c3.4-3.4,8.2-5.1,14.3-5.1c0.8,0,2.4,0.1,4.8,0.3V281.5z"/>
	</defs>
	<clipPath id="SVGID_8_">
		<use xlink:href="#SVGID_7_"  style="overflow:visible;"/>
	</clipPath>
	
		<linearGradient id="SVGID_9_" gradientUnits="userSpaceOnUse" x1="21.2496" y1="721.6296" x2="22.7928" y2="721.6296" gradientTransform="matrix(220.2062 -220.2062 -220.2062 -220.2062 154323.0625 164037.9688)">
		<stop  offset="0" style="stop-color:#00EA7B"/>
		<stop  offset="0.2302" style="stop-color:#00E77F"/>
		<stop  offset="0.4474" style="stop-color:#00DC8A"/>
		<stop  offset="0.6595" style="stop-color:#00CB9D"/>
		<stop  offset="0.867" style="stop-color:#00B2B8"/>
		<stop  offset="1" style="stop-color:#009FCD"/>
	</linearGradient>
	<polygon class="st2" points="168.1,318.6 227.9,258.8 287.7,318.6 227.9,378.4 	"/>
</g>
<g>
	<defs>
		<path id="SVGID_10_" d="M314.1,337.2c-2.4,1.8-5.2,2.7-8.6,2.7c-2.9,0-5.1-0.8-6.7-2.5c-1.6-1.7-2.4-4.1-2.4-7.1v-29.8h18.2v-16.3
			h-18.2v-17.8h-21.2v17.8h-11.3v16.3h11.3v30c0,8.6,2.4,15.1,7.1,19.6c4.8,4.4,11.5,6.7,20.2,6.7c3.4,0,6.5-0.4,9.6-1.2
			c3-0.8,5.6-1.9,7.7-3.5L314.1,337.2z"/>
	</defs>
	<clipPath id="SVGID_11_">
		<use xlink:href="#SVGID_10_"  style="overflow:visible;"/>
	</clipPath>
	
		<linearGradient id="SVGID_12_" gradientUnits="userSpaceOnUse" x1="21.2496" y1="721.606" x2="22.7928" y2="721.606" gradientTransform="matrix(220.2062 -220.2062 -220.2062 -220.2062 154346.3438 164061.2344)">
		<stop  offset="0" style="stop-color:#00EA7B"/>
		<stop  offset="0.2302" style="stop-color:#00E77F"/>
		<stop  offset="0.4474" style="stop-color:#00DC8A"/>
		<stop  offset="0.6595" style="stop-color:#00CB9D"/>
		<stop  offset="0.867" style="stop-color:#00B2B8"/>
		<stop  offset="1" style="stop-color:#009FCD"/>
	</linearGradient>
	<polygon class="st3" points="218.7,311.6 291.8,238.4 365,311.6 291.8,384.7 	"/>
</g>
<g>
	<defs>
		<path id="SVGID_13_" d="M375,254.8c-2.9-0.7-5.9-1-9-1c-9,0-15.9,2.4-20.9,7.3c-4.9,4.9-7.4,11.5-7.4,19.8v3.3h-11.3v16.3h11.3
			v55.2h21.2v-55.2h18.2v-16.3h-18.8v-3.1c0-7.1,3.2-10.6,9.7-10.6c3.3,0,6.1,0.9,8.6,2.6l5.6-15.4
			C380.3,256.4,377.9,255.4,375,254.8"/>
	</defs>
	<clipPath id="SVGID_14_">
		<use xlink:href="#SVGID_13_"  style="overflow:visible;"/>
	</clipPath>
	
		<linearGradient id="SVGID_15_" gradientUnits="userSpaceOnUse" x1="21.2496" y1="721.5587" x2="22.7928" y2="721.5587" gradientTransform="matrix(220.2062 -220.2062 -220.2062 -220.2062 154363.7344 164078.625)">
		<stop  offset="0" style="stop-color:#00EA7B"/>
		<stop  offset="0.2302" style="stop-color:#00E77F"/>
		<stop  offset="0.4474" style="stop-color:#00DC8A"/>
		<stop  offset="0.6595" style="stop-color:#00CB9D"/>
		<stop  offset="0.867" style="stop-color:#00B2B8"/>
		<stop  offset="1" style="stop-color:#009FCD"/>
	</linearGradient>
	<polygon class="st4" points="275.5,304.7 354.3,225.9 433.1,304.7 354.3,383.6 	"/>
</g>
<g>
	<defs>
		<path id="SVGID_16_" d="M408.1,304.4c3.5-3.7,8-5.5,13.5-5.5c5.4,0,9.9,1.8,13.4,5.5c3.5,3.7,5.2,8.6,5.2,14.7
			c0,6.2-1.7,11.1-5.2,14.7c-3.5,3.7-8,5.5-13.4,5.5c-5.4,0-9.9-1.8-13.5-5.5c-3.5-3.7-5.3-8.6-5.3-14.7
			C402.8,313,404.6,308,408.1,304.4 M456.5,299.7c-3.4-5.7-8.2-10.2-14.3-13.4c-6.1-3.2-13-4.8-20.7-4.8c-7.7,0-14.6,1.6-20.7,4.8
			c-6.1,3.2-10.9,7.7-14.3,13.4c-3.4,5.7-5.2,12.2-5.2,19.4c0,7.3,1.7,13.7,5.2,19.4c3.4,5.7,8.2,10.2,14.3,13.4
			c6.1,3.2,13,4.8,20.7,4.8c7.7,0,14.6-1.6,20.7-4.8c6.1-3.2,10.8-7.7,14.3-13.4c3.4-5.7,5.2-12.2,5.2-19.4
			C461.7,311.9,460,305.4,456.5,299.7"/>
	</defs>
	<clipPath id="SVGID_17_">
		<use xlink:href="#SVGID_16_"  style="overflow:visible;"/>
	</clipPath>
	
		<linearGradient id="SVGID_18_" gradientUnits="userSpaceOnUse" x1="21.2496" y1="721.4914" x2="22.7928" y2="721.4914" gradientTransform="matrix(220.2062 -220.2062 -220.2062 -220.2062 154389.7344 164104.625)">
		<stop  offset="0" style="stop-color:#00EA7B"/>
		<stop  offset="0.2302" style="stop-color:#00E77F"/>
		<stop  offset="0.4474" style="stop-color:#00DC8A"/>
		<stop  offset="0.6595" style="stop-color:#00CB9D"/>
		<stop  offset="0.867" style="stop-color:#00B2B8"/>
		<stop  offset="1" style="stop-color:#009FCD"/>
	</linearGradient>
	<polygon class="st5" points="343.7,319.1 421.5,241.3 499.3,319.1 421.5,396.9 	"/>
</g>
<g>
	<defs>
		<rect id="SVGID_19_" x="475.8" y="254.8" width="21.2" height="100.9"/>
	</defs>
	<clipPath id="SVGID_20_">
		<use xlink:href="#SVGID_19_"  style="overflow:visible;"/>
	</clipPath>
	
		<linearGradient id="SVGID_21_" gradientUnits="userSpaceOnUse" x1="21.2496" y1="721.4506" x2="22.7928" y2="721.4506" gradientTransform="matrix(220.2062 -220.2062 -220.2062 -220.2062 154406.2656 164121.1563)">
		<stop  offset="0" style="stop-color:#00EA7B"/>
		<stop  offset="0.2302" style="stop-color:#00E77F"/>
		<stop  offset="0.4474" style="stop-color:#00DC8A"/>
		<stop  offset="0.6595" style="stop-color:#00CB9D"/>
		<stop  offset="0.867" style="stop-color:#00B2B8"/>
		<stop  offset="1" style="stop-color:#009FCD"/>
	</linearGradient>
	<polygon class="st6" points="425.4,305.3 486.4,244.2 547.5,305.3 486.4,366.3 	"/>
</g>
<g>
	<defs>
		<path id="SVGID_22_" d="M516.7,282.6v73.1h21.2v-73.1H516.7z M536.9,252c-2.4-2.2-5.6-3.3-9.5-3.3c-3.9,0-7.1,1.1-9.5,3.4
			c-2.4,2.3-3.7,5.1-3.7,8.4c0,3.4,1.2,6.2,3.7,8.4c2.4,2.3,5.6,3.4,9.5,3.4c3.9,0,7.1-1.2,9.5-3.5c2.4-2.3,3.7-5.2,3.7-8.8
			C540.5,256.9,539.3,254.1,536.9,252"/>
	</defs>
	<clipPath id="SVGID_23_">
		<use xlink:href="#SVGID_22_"  style="overflow:visible;"/>
	</clipPath>
	
		<linearGradient id="SVGID_24_" gradientUnits="userSpaceOnUse" x1="21.2496" y1="721.4236" x2="22.7928" y2="721.4236" gradientTransform="matrix(220.2062 -220.2062 -220.2062 -220.2062 154419.25 164134.1563)">
		<stop  offset="0" style="stop-color:#00EA7B"/>
		<stop  offset="0.2302" style="stop-color:#00E77F"/>
		<stop  offset="0.4474" style="stop-color:#00DC8A"/>
		<stop  offset="0.6595" style="stop-color:#00CB9D"/>
		<stop  offset="0.867" style="stop-color:#00B2B8"/>
		<stop  offset="1" style="stop-color:#009FCD"/>
	</linearGradient>
	<polygon class="st7" points="460.7,302.2 527.3,235.5 594,302.2 527.3,368.9 	"/>
</g>
<g>
	<defs>
		<path id="SVGID_25_" d="M591.2,295.9v16.3h16.2v11.1h-16.2v16.2h-11v-16.2h-16.3v-11.1h16.3v-16.3H591.2z M625.8,318.2
			c-0.1-7.3-1.7-13.7-5-19.3c-3.4-5.7-8.1-10.1-14.1-13.2c-6.1-3.1-13.1-4.7-21.1-4.7c-8,0-15,1.6-21.1,4.7
			c-6.1,3.1-10.8,7.5-14.1,13.2c-3.3,5.7-5,12.2-5,19.6c0,7.5,1.7,14.1,5,19.8c3.3,5.7,8,10.1,14.1,13.2c6.1,3.1,13.1,4.7,21.1,4.7
			c8,0,15-1.6,21.1-4.7c6.1-3.1,10.8-7.5,14.1-13.2c3.3-5.6,5-12,5-19.4V318.2z"/>
	</defs>
	<clipPath id="SVGID_26_">
		<use xlink:href="#SVGID_25_"  style="overflow:visible;"/>
	</clipPath>
	
		<linearGradient id="SVGID_27_" gradientUnits="userSpaceOnUse" x1="21.2496" y1="721.3605" x2="22.7928" y2="721.3605" gradientTransform="matrix(220.2062 -220.2062 -220.2062 -220.2062 154442.7344 164157.625)">
		<stop  offset="0" style="stop-color:#00EA7B"/>
		<stop  offset="0.2302" style="stop-color:#00E77F"/>
		<stop  offset="0.4474" style="stop-color:#00DC8A"/>
		<stop  offset="0.6595" style="stop-color:#00CB9D"/>
		<stop  offset="0.867" style="stop-color:#00B2B8"/>
		<stop  offset="1" style="stop-color:#009FCD"/>
	</linearGradient>
	<polygon class="st8" points="507.9,318.7 585.6,240.9 663.4,318.7 585.6,396.4 	"/>
</g>
<g>
	<defs>
		<rect id="SVGID_28_" x="548.8" y="361.5" width="73.7" height="12"/>
	</defs>
	<clipPath id="SVGID_29_">
		<use xlink:href="#SVGID_28_"  style="overflow:visible;"/>
	</clipPath>
	
		<linearGradient id="SVGID_30_" gradientUnits="userSpaceOnUse" x1="21.2496" y1="721.3216" x2="22.7928" y2="721.3216" gradientTransform="matrix(220.2062 -220.2062 -220.2062 -220.2062 154458.5625 164173.4531)">
		<stop  offset="0" style="stop-color:#00EA7B"/>
		<stop  offset="0.2302" style="stop-color:#00E77F"/>
		<stop  offset="0.4474" style="stop-color:#00DC8A"/>
		<stop  offset="0.6595" style="stop-color:#00CB9D"/>
		<stop  offset="0.867" style="stop-color:#00B2B8"/>
		<stop  offset="1" style="stop-color:#009FCD"/>
	</linearGradient>
	<polygon class="st9" points="542.8,367.4 585.6,324.6 628.4,367.4 585.6,410.3 	"/>
</g>
</svg>
